<?xml version="1.0" encoding="utf-8"?>
<!-- Generator: Adobe Illustrator 27.0.1, SVG Export Plug-In . SVG Version: 6.00 Build 0)  -->
<svg version="1.1" id="Слой_1" xmlns="http://www.w3.org/2000/svg" xmlns:xlink="http://www.w3.org/1999/xlink" x="0px" y="0px"
	 viewBox="0 0 519.1 134" style="enable-background:new 0 0 519.1 134;" xml:space="preserve">
<style type="text/css">
	.st0{fill:#FFFFFF;}
</style>
<g>
	<g>
		<path class="st0" d="M139.6,30.5c21.9,52.3-10.8,64.7-10.8,64.7c-19.2,27-51.2,20-51.2,20c-13.1-3.9-22-9.5-27.9-15.9
			c2.9-19.4,12.9-46,45.1-49.9c-8.2,6.5-14.9,11.1-14.9,11.1C86.9,67.5,88,76,88,76c-5.8-8.9-16.9-2.7-16.9-2.7
			c-6.2,19.3,10,29.3,10,29.3c22.3,9.2,41.2-12,41.2-12c-10-15.8,0-41.2,0-41.2c-1.5,23.1,7.7,30.4,7.7,30.4
			C149.7,71.8,140,31.8,139.6,30.5z"/>
		<path class="st0" d="M122.7,22.8c-6,8.5-18.1,18.9-27.9,26.6c-32.3,3.9-42.2,30.5-45.1,49.9c-6.8-7.4-9.6-15.8-10.3-23.9
			c-9.5-1.6-21.5,5.1-21.5,5.1S25.9,67.3,40,62c0.3-1.7,0.6-3.4,1-5C17.4,47.7,6.7,67.6,6.4,68.2C6.7,67,19,27,57,31.2
			C85,7.5,122.7,22.8,122.7,22.8z"/>
	</g>
</g>
<g>
	<path class="st0" d="M168.5,49.1h35.9v35.9h-28.8v14.4h-7.1V49.1z M175.6,56.3v21.4h21.5V56.3H175.6z"/>
	<path class="st0" d="M212.3,63.4H241v-7.2h-28.7v-7.2h35.9v35.9h-35.9V63.4z M219.5,70.6v7.1H241v-7.1H219.5z"/>
	<path class="st0" d="M255.9,92.2h28.7v-7.3h-28.7V49.1h7.1v28.6h21.6V49h7.2v50.3h-35.9V92.2z"/>
	<path class="st0" d="M299.5,77.8h28.7v-7.2h-28.7V49.1h35.9v7.2h-28.7v7.2h28.7v21.5h-35.9V77.8z"/>
	<path class="st0" d="M343.1,34.7h7.1v14.4H379v35.9h-7.2V56.3h-21.6v28.7h-7.1V34.7z"/>
	<path class="st0" d="M386.9,63.4h28.7v-7.2h-28.7v-7.2h35.9v35.9h-35.9V63.4z M394.1,70.6v7.1h21.5v-7.1H394.1z"/>
	<path class="st0" d="M430.5,49.1h35.9v7.2h-28.8v28.7h-7.1V49.1z"/>
	<path class="st0" d="M474,34.7h7.1v28.7h14.4v-7.1h7.2v-7.2h7.2v7.2h-7.2v7.2h-7.2v7.2h-14.4v14.3H474V34.7z M495.6,70.6h7.1v7.1
		h-7.1V70.6z M502.8,77.8h7.1v7.1h-7.1V77.8z"/>
</g>
</svg>
